<?xml version="1.0" standalone="no"?>
<!DOCTYPE svg PUBLIC "-//W3C//DTD SVG 20010904//EN"
 "http://www.w3.org/TR/2001/REC-SVG-20010904/DTD/svg10.dtd">
<svg version="1.0" xmlns="http://www.w3.org/2000/svg"
 width="500.000000pt" height="500.000000pt" viewBox="0 0 500.000000 500.000000"
 preserveAspectRatio="xMidYMid meet">

<g transform="translate(0.000000,500.000000) scale(0.100000,-0.100000)"
fill="#000000" stroke="none">
<path d="M2449 4344 c-6 -8 -24 -14 -39 -14 -29 0 -54 -22 -64 -56 -4 -12 -16
-24 -27 -27 -31 -8 -23 -61 11 -66 51 -7 57 -58 8 -63 -29 -3 -33 -6 -33 -33
0 -27 4 -30 33 -33 28 -3 32 -7 32 -32 0 -25 -4 -29 -32 -32 -29 -3 -33 -6
-33 -33 0 -23 5 -31 23 -33 12 -2 22 -10 22 -19 0 -8 11 -28 25 -45 27 -32 32
-63 13 -72 -10 -3 -8 -9 5 -19 17 -14 17 -40 -3 -678 -12 -365 -26 -672 -31
-681 -5 -10 -9 -41 -9 -70 0 -108 -44 -184 -112 -195 -55 -8 -83 3 -143 57
-30 28 -64 50 -74 50 -61 0 -54 -95 19 -250 44 -93 53 -122 54 -169 0 -74 -17
-104 -123 -215 -97 -103 -134 -163 -156 -257 -28 -122 -15 -228 47 -358 47
-100 187 -236 299 -289 151 -72 348 -96 489 -58 231 63 429 254 481 466 19 82
15 193 -11 270 -30 89 -51 121 -148 224 -144 152 -152 203 -62 395 59 128 73
196 45 224 -24 24 -48 21 -76 -9 -42 -46 -110 -84 -150 -84 -40 0 -89 33 -111
74 -24 44 -31 202 -34 860 -3 534 -2 681 8 687 7 5 11 23 10 41 -2 24 3 39 17
52 12 11 21 30 21 43 0 16 6 23 19 23 22 0 35 28 25 53 -3 9 -18 17 -32 19
-21 2 -28 9 -30 31 -3 24 0 27 27 27 20 0 32 6 36 19 9 28 -5 51 -31 51 -20 0
-24 5 -24 30 0 25 4 30 24 30 14 0 28 5 31 11 11 16 -4 59 -20 59 -8 0 -15 9
-15 20 0 30 -36 60 -70 60 -17 0 -33 6 -36 14 -7 19 -79 19 -95 0z m-101
-2549 l-3 -308 -95 -23 c-124 -30 -148 -30 -161 -1 -9 20 1 59 57 228 37 112
82 239 100 282 37 88 82 153 95 140 5 -5 8 -144 7 -318z m-376 -442 c20 -18
24 -63 6 -81 -29 -29 -98 -1 -98 40 0 23 34 58 57 58 9 0 25 -7 35 -17z m693
-148 l0 -30 -185 -3 c-163 -2 -186 0 -197 14 -9 12 -9 22 -2 36 9 17 22 18
197 16 l187 -3 0 -30z m-507 9 c32 -22 27 -73 -9 -93 -24 -13 -29 -13 -53 2
-34 22 -36 69 -4 91 28 20 38 20 66 0z m-192 -72 c6 -4 16 -16 22 -28 28 -54
-57 -103 -92 -52 -21 30 -20 44 4 68 21 21 47 25 66 12z m196 -149 c38 -34 15
-93 -37 -93 -51 0 -73 53 -38 92 20 22 51 23 75 1z"/>
<path d="M2860 3346 c0 -94 3 -126 13 -126 6 0 55 -20 108 -43 399 -180 678
-539 803 -1032 8 -32 14 -60 12 -62 -1 -1 -18 2 -37 7 -18 6 -44 10 -56 10
l-23 0 0 -610 0 -610 33 0 c49 0 131 43 182 96 51 52 106 158 129 249 22 86
39 251 32 308 -6 40 -4 47 10 47 16 0 17 14 11 153 -31 738 -343 1306 -883
1607 -99 55 -241 114 -306 127 l-28 6 0 -127z"/>
<path d="M2040 3439 c-182 -64 -397 -200 -552 -348 -342 -326 -546 -812 -565
-1343 -5 -145 -4 -158 12 -158 14 0 16 -7 10 -48 -10 -77 13 -257 46 -357 35
-104 73 -167 133 -223 55 -51 94 -71 151 -79 l45 -6 0 612 0 611 -29 0 c-16 0
-42 -5 -57 -10 -15 -6 -28 -9 -31 -7 -7 7 47 199 81 286 150 389 406 662 769
821 l77 34 0 118 c0 135 4 130 -90 97z"/>
<path d="M1370 1490 l0 -610 56 0 c50 0 59 3 90 34 l34 34 0 176 c0 164 -2
180 -22 219 -20 36 -23 57 -23 142 0 85 3 106 23 142 20 39 22 55 22 224 l0
181 -34 34 c-31 31 -40 34 -90 34 l-56 0 0 -610z"/>
<path d="M3484 2066 l-34 -34 0 -179 c0 -165 2 -183 22 -224 32 -64 32 -213 0
-282 -20 -44 -22 -64 -22 -224 l0 -175 34 -34 c31 -31 40 -34 90 -34 l56 0 0
610 0 610 -56 0 c-50 0 -59 -3 -90 -34z"/>
</g>
</svg>
